<svg id="visual" viewBox="0 0 960 540" width="960" height="540" xmlns="http://www.w3.org/2000/svg" xmlns:xlink="http://www.w3.org/1999/xlink" version="1.1"><rect x="0" y="0" width="960" height="540" fill="#ccc3b7"></rect><defs><linearGradient id="grad1_0" x1="43.8%" y1="0%" x2="100%" y2="100%"><stop offset="14.444444444444446%" stop-color="#a3814e" stop-opacity="1"></stop><stop offset="85.55555555555554%" stop-color="#a3814e" stop-opacity="1"></stop></linearGradient></defs><defs><linearGradient id="grad1_1" x1="43.8%" y1="0%" x2="100%" y2="100%"><stop offset="14.444444444444446%" stop-color="#a3814e" stop-opacity="1"></stop><stop offset="85.55555555555554%" stop-color="#b29770" stop-opacity="1"></stop></linearGradient></defs><defs><linearGradient id="grad1_2" x1="43.8%" y1="0%" x2="100%" y2="100%"><stop offset="14.444444444444446%" stop-color="#bfad93" stop-opacity="1"></stop><stop offset="85.55555555555554%" stop-color="#b29770" stop-opacity="1"></stop></linearGradient></defs><defs><linearGradient id="grad1_3" x1="43.8%" y1="0%" x2="100%" y2="100%"><stop offset="14.444444444444446%" stop-color="#bfad93" stop-opacity="1"></stop><stop offset="85.55555555555554%" stop-color="#ccc3b7" stop-opacity="1"></stop></linearGradient></defs><defs><linearGradient id="grad2_0" x1="0%" y1="0%" x2="56.3%" y2="100%"><stop offset="14.444444444444446%" stop-color="#a3814e" stop-opacity="1"></stop><stop offset="85.55555555555554%" stop-color="#a3814e" stop-opacity="1"></stop></linearGradient></defs><defs><linearGradient id="grad2_1" x1="0%" y1="0%" x2="56.3%" y2="100%"><stop offset="14.444444444444446%" stop-color="#b29770" stop-opacity="1"></stop><stop offset="85.55555555555554%" stop-color="#a3814e" stop-opacity="1"></stop></linearGradient></defs><defs><linearGradient id="grad2_2" x1="0%" y1="0%" x2="56.3%" y2="100%"><stop offset="14.444444444444446%" stop-color="#b29770" stop-opacity="1"></stop><stop offset="85.55555555555554%" stop-color="#bfad93" stop-opacity="1"></stop></linearGradient></defs><defs><linearGradient id="grad2_3" x1="0%" y1="0%" x2="56.3%" y2="100%"><stop offset="14.444444444444446%" stop-color="#ccc3b7" stop-opacity="1"></stop><stop offset="85.55555555555554%" stop-color="#bfad93" stop-opacity="1"></stop></linearGradient></defs><g transform="translate(960, 0)"><path d="M0 486C-53.3 485 -106.6 484 -150.2 462.2C-193.7 440.4 -227.5 397.9 -263.9 363.2C-300.3 328.6 -339.4 302 -365.7 265.7C-391.9 229.4 -405.3 183.4 -423.2 137.5C-441.1 91.6 -463.6 45.8 -486 0L0 0Z" fill="#c6b8a5"></path><path d="M0 364.5C-40 363.7 -80 363 -112.6 346.7C-145.3 330.3 -170.6 298.4 -197.9 272.4C-225.3 246.5 -254.6 226.5 -274.3 199.3C-293.9 172 -304 137.6 -317.4 103.1C-330.8 68.7 -347.7 34.4 -364.5 0L0 0Z" fill="#b9a281"></path><path d="M0 243C-26.7 242.5 -53.3 242 -75.1 231.1C-96.9 220.2 -113.7 198.9 -132 181.6C-150.2 164.3 -169.7 151 -182.8 132.8C-196 114.7 -202.7 91.7 -211.6 68.8C-220.6 45.8 -231.8 22.9 -243 0L0 0Z" fill="#aa8c5f"></path><path d="M0 121.5C-13.3 121.2 -26.7 121 -37.5 115.6C-48.4 110.1 -56.9 99.5 -66 90.8C-75.1 82.2 -84.9 75.5 -91.4 66.4C-98 57.3 -101.3 45.9 -105.8 34.4C-110.3 22.9 -115.9 11.5 -121.5 0L0 0Z" fill="#a3814e"></path></g><g transform="translate(0, 540)"><path d="M0 -486C45.6 -462.2 91.2 -438.4 137.5 -423.2C183.8 -408.1 230.9 -401.6 277.4 -381.9C324 -362.1 370.1 -329.1 393.2 -285.7C416.3 -242.2 416.3 -188.4 428 -139.1C439.6 -89.7 462.8 -44.9 486 0L0 0Z" fill="#c6b8a5"></path><path d="M0 -364.5C34.2 -346.6 68.4 -328.8 103.1 -317.4C137.9 -306.1 173.2 -301.2 208.1 -286.4C243 -271.6 277.6 -246.8 294.9 -214.2C312.2 -181.7 312.3 -141.3 321 -104.3C329.7 -67.3 347.1 -33.6 364.5 0L0 0Z" fill="#b9a281"></path><path d="M0 -243C22.8 -231.1 45.6 -219.2 68.8 -211.6C91.9 -204 115.4 -200.8 138.7 -190.9C162 -181.1 185 -164.5 196.6 -142.8C208.1 -121.1 208.2 -94.2 214 -69.5C219.8 -44.9 231.4 -22.4 243 0L0 0Z" fill="#aa8c5f"></path><path d="M0 -121.5C11.4 -115.5 22.8 -109.6 34.4 -105.8C46 -102 57.7 -100.4 69.4 -95.5C81 -90.5 92.5 -82.3 98.3 -71.4C104.1 -60.6 104.1 -47.1 107 -34.8C109.9 -22.4 115.7 -11.2 121.5 0L0 0Z" fill="#a3814e"></path></g></svg>