<?xml version="1.0" encoding="iso-8859-1"?>
<!-- Generator: Adobe Illustrator 16.0.0, SVG Export Plug-In . SVG Version: 6.00 Build 0)  -->
<!DOCTYPE svg PUBLIC "-//W3C//DTD SVG 1.1//EN" "http://www.w3.org/Graphics/SVG/1.1/DTD/svg11.dtd">
<svg version="1.1" id="Capa_1" xmlns="http://www.w3.org/2000/svg" xmlns:xlink="http://www.w3.org/1999/xlink" x="0px" y="0px"
	 width="32px" height="32px" viewBox="0 0 32 32" style="enable-background:new 0 0 32 32;" xml:space="preserve">
<g>
	<g id="Paper_x5F_Glass">
		<g>
			<path d="M27.938,5.688l0.013-0.004l-0.996-2.988C26.688,1.793,25.023,0,16,0C6.977,0,5.312,1.793,5.048,2.695L4.052,5.684
				l0.012,0.004C4.029,5.787,4,5.889,4,6c0,1.026,0.805,1.805,2.033,2.393l1.972,20.703c0.003,0.026,0.018,0.049,0.021,0.075
				C8.312,31.912,15.198,32,16,32s7.688-0.088,7.975-2.829c0.004-0.026,0.02-0.049,0.021-0.075l1.972-20.703
				C27.195,7.805,28,7.026,28,6C28,5.89,27.971,5.787,27.938,5.688z M16,2c4.432,0,7.312,0.547,8.516,1C23.312,3.453,20.432,4,16,4
				c-4.432,0-7.313-0.547-8.515-1C8.687,2.547,11.568,2,16,2z M22.009,28.861C21.609,29.271,19.502,30,16,30
				s-5.61-0.729-6.009-1.139l-0.54-5.668C11.778,23.938,15.06,24,16,24c0.939,0,4.221-0.061,6.549-0.803L22.009,28.861z
				 M23.518,13.033C22.425,13.468,19.857,14,16,14c-3.857,0-6.425-0.532-7.517-0.967L8.111,9.124C10.593,9.772,13.703,10,16,10
				s5.407-0.228,7.889-0.876L23.518,13.033z M16,8c-5.894,0-9.533-1.263-9.964-1.947l0.46-1.379C7.919,5.373,10.669,6,16,6
				s8.081-0.627,9.504-1.326l0.453,1.358C25.471,6.759,21.844,8,16,8z"/>
		</g>
	</g>
</g>
<g>
</g>
<g>
</g>
<g>
</g>
<g>
</g>
<g>
</g>
<g>
</g>
<g>
</g>
<g>
</g>
<g>
</g>
<g>
</g>
<g>
</g>
<g>
</g>
<g>
</g>
<g>
</g>
<g>
</g>
</svg>
